<?xml version="1.0" standalone="no"?>
<?xml-stylesheet type="text/css" href="handson.css" ?>
<svg xmlns="http://www.w3.org/2000/svg" width="800" height="600" viewBox="0 0 800 600" xmlns:xlink="http://www.w3.org/1999/xlink" >

  <!-- draw background grid -->
  <path class="thin" style="stroke-opacity:0.2" d="M0,0
  h750v10h-750v10h750v10h-750v10
  h750v10h-750v10h750v10h-750v10
  h750v10h-750v10h750v10h-750v10
  h750v10h-750v10h750v10h-750v10
  h750v10h-750v10h750v10h-750v10
  h750v10h-750v10h750v10h-750v10
  h750v10h-750v10h750v10h-750v10
  h750v10h-750v10h750v10h-750v10
  h750v10h-750v10h750v10h-750v10
  h750v10h-750v10h750v10h-750v10
  h750v10h-750v10h750v10h-750v10
  h750v10h-750v10h750v10h-750v10
  h750v10h-750v10
  h750v-500h-750v500
  h10v-500h10v500h10v-500h10v500
  h10v-500h10v500h10v-500h10v500
  h10v-500h10v500h10v-500h10v500
  h10v-500h10v500h10v-500h10v500
  h10v-500h10v500h10v-500h10v500
  h10v-500h10v500h10v-500h10v500
  h10v-500h10v500h10v-500h10v500
  h10v-500h10v500h10v-500h10v500
  h10v-500h10v500h10v-500h10v500
  h10v-500h10v500h10v-500h10v500
  h10v-500h10v500h10v-500h10v500
  h10v-500h10v500h10v-500h10v500
  h10v-500h10v500h10v-500h10v500
  h10v-500h10v500h10v-500h10v500
  h10v-500h10v500h10v-500h10v500
  h10v-500h10v500h10v-500h10v500
  h10v-500h10v500h10v-500h10v500
  h10v-500h10v500h10v-500h10v500
  h10v-500h10v500" />
  <path class="outline" style="stroke-opacity:0.2" d="M0,0
  h750v50h-750v50h750v50h-750v50
  h750v50h-750v50h750v50h-750v50
  h750v50h-750v50
  h750v-500h-750v500
  h50v-500h50v500h50v-500h50v500
  h50v-500h50v500h50v-500h50v500
  h50v-500h50v500h50v-500h50v500
  h50v-500h50v500h50
  "/>
  <text x="0" style="text-anchor:middle;font-size:10px">
  <tspan x="50" y="10">50</tspan>
  <tspan x="100" y="10">100</tspan>
  <tspan x="150" y="10">150</tspan>
  <tspan x="200" y="10">200</tspan>
  <tspan x="250" y="10">250</tspan>
  <tspan x="300" y="10">300</tspan>
  <tspan x="350" y="10">350</tspan>
  <tspan x="400" y="10">400</tspan>
  <tspan x="450" y="10">450</tspan>
  <tspan x="500" y="10">500</tspan>
  <tspan x="550" y="10">550</tspan>
  <tspan x="600" y="10">600</tspan>
  <tspan x="650" y="10">650</tspan>
  <tspan x="700" y="10">700</tspan>
  </text>
  <text style="text-anchor:start;font-size:10px">
  <tspan x="730" y="53">50</tspan>
  <tspan x="730" y="103">100</tspan>
  <tspan x="730" y="153">150</tspan>
  <tspan x="730" y="203">200</tspan>
  <tspan x="730" y="253">250</tspan>
  <tspan x="730" y="303">300</tspan>
  <tspan x="730" y="353">350</tspan>
  <tspan x="730" y="403">400</tspan>
  <tspan x="730" y="453">450</tspan>

  </text>
  <!-- end draw grid -->


  <defs>
    <!--Mountain -->
    <g  id='mountain' transform="translate(0,0)">
      <g transform="translate(-500,0)">
        <polygon points="200,300 400,0 550,300" fill="grey" />
        <polygon points="366,50 400,0 425,50" fill="white" />
      </g>
      <g transform="translate(0,0)">
        <polygon points="-100,300 100,0 200,300" fill="grey" />
        <polygon points="66,50 100,0 118,50" fill="white" />
      </g>
      <g transform="translate(0,0)">
        <polygon points="100,300 200,70 350,300" fill="grey" />
        <polygon points="186,100 200,70 220,100" fill="white" />
      </g>
      <g transform="translate(0,0)">
        <polygon points="200,300 400,0 550,300" fill="grey" />
        <polygon points="366,50 400,0 425,50" fill="white" />
      </g>
      <g transform="translate(-50,0)">
        <polygon points="450,300 650,70 750,300" fill="grey" />
        <polygon points="623,100 650,70 664,100" fill="white" />
      </g>
    </g>
    <!--Tree -->
    <g  id='tree' transform="translate(100,100)">
        <!--leafs -->
        <g>
          <polygon points="0,120 50,100 100,120" fill="rgb(9,82,40)" />
          <polygon points="5,110 50,90 95,110" fill="rgb(9,82,40)" />
          <polygon points="10,100 50,80 90,100" fill="rgb(9,82,40)" />
          <polygon points="15,90 50,70 85,90" fill="rgb(9,82,40)" />
          <polygon points="20,80 50,65 80,80" fill="rgb(9,82,40)" />
          <polygon points="30,70 50,50 70,70" fill="rgb(9,82,40)" />
          <polygon points="30,70 50,50 70,70" fill="white" />
        </g>
        <!--trunk -->
        <g transform="translate(46,120)">
          <rect width='8' height='20' fill='brown' />
        </g>
    </g>

    <!--snow branch -->
      <g id='snow-branch'>

        <rect x="0" y="0" rx="5" ry="5" width="150" height="10"
            style="fill:white;opacity:0.5" />
        <g transform="translate(10,-20) scale(0.5)" >
            <polyline points="0,0 50,50 0,100"
              style="fill:none;stroke:white;stroke-width:8;opacity:0.5" />
        </g>
        <g transform="translate(138,30) scale(0.5) rotate(180)" >
            <polyline points="0,0 50,50 0,100"
              style="fill:none;stroke:white;stroke-width:8;opacity:0.5" />
        </g>
      </g>
    <!--snow-flake -->
    <g  id='snow' transform="translate(0,0)">
      <use xlink:href="#snow-branch" x="0" y="0" />
      <g transform="translate(0,0) rotate(120 75 5)" >
        <use xlink:href="#snow-branch" x="0" y="0" />
      </g>
      <g transform="translate(0,0) rotate(240 75 5)" >
        <use xlink:href="#snow-branch" x="0" y="0" />
      </g>
    </g>
    <!--snow groupe -->
    <g  id='snow-groupe' transform="translate(0,0)">
      <g transform="scale(0.1)">
        <use xlink:href="#snow" x="0" y="0" />
        <use xlink:href="#snow" x="1000" y="1000" />
        <use xlink:href="#snow" x="500" y="562" />
        <use xlink:href="#snow" x="2000" y="152" />
        <use xlink:href="#snow" x="1235" y="230" />
        <use xlink:href="#snow" x="2569" y="784" />
        <use xlink:href="#snow" x="2258" y="985" />
      </g>
    </g>

    <!--snow fall -->
    <g  id='snow-fall' transform="translate(0,0)">
      <g transform="translate(0,0)">
        <use xlink:href="#snow-groupe" x="0" y="0" />
        <use xlink:href="#snow-groupe" x="300" y="0" />
        <use xlink:href="#snow-groupe" x="600" y="0" />

        <use xlink:href="#snow-groupe" x="0" y="100" />
        <use xlink:href="#snow-groupe" x="300" y="100" />
        <use xlink:href="#snow-groupe" x="600" y="100" />

        <use xlink:href="#snow-groupe" x="0" y="200" />
        <use xlink:href="#snow-groupe" x="300" y="200" />
        <use xlink:href="#snow-groupe" x="600" y="200" />

        <use xlink:href="#snow-groupe" x="0" y="300" />
        <use xlink:href="#snow-groupe" x="300" y="300" />
        <use xlink:href="#snow-groupe" x="600" y="300" />

        <use xlink:href="#snow-groupe" x="0" y="400" />
        <use xlink:href="#snow-groupe" x="300" y="400" />
        <use xlink:href="#snow-groupe" x="600" y="400" />
      </g>
    </g>

    <!--snow-animation slow-->
    <g  id='snow-animation-slow' transform="translate(0,0)">

      <g transform="translate(0,0) rotate(180 400 0)">
        <use xlink:href="#snow-fall" x="0" y="-500" />
        <use xlink:href="#snow-fall" x="0" y="0" />
      </g>
      <animateTransform id="snowFallStart" attributeName="transform" type="translate"
                                from="0 0"
                                to="0 500"
                                dur="4s"
                                begin="0s"
                                repeatCount="indefinite"
                                />
    </g>

    <!--snow-animation fast-->
    <g  id='snow-animation-fast' transform="translate(0,0)">

      <g transform="translate(0,0)">
        <use xlink:href="#snow-fall" x="0" y="-500" />
        <use xlink:href="#snow-fall" x="0" y="0" />
      </g>
      <animateTransform id="snowFallStart" attributeName="transform" type="translate"
                                from="0 0"
                                to="0 500"
                                dur="8s"
                                begin="0s"
                                repeatCount="indefinite"
                                />
    </g>

    <!--sky-->
    <g id='sky'>
        <rect width='800' height='500' fill='rgb(135 206 235)' />
    </g>
  </defs>


<use xlink:href="#sky" x="0" y="0" />
<g transform="translate(0,300)">
  <rect width='800' height='205' fill='white' />
</g>
<use xlink:href="#mountain" x="100" y="50" />
<g transform="translate(200,0)">
  <use xlink:href="#tree" x="0" y="100" />
  <use xlink:href="#tree" x="50" y="95" />
  <use xlink:href="#tree" x="180" y="100" />
  <use xlink:href="#tree" x="290" y="85" />
</g>

<use xlink:href="#snow-animation-fast" x="0" y="0" />
<use xlink:href="#snow-animation-slow" x="40" y="0" />
</svg>
