<?xml version="1.0" standalone="no"?>
<?xml-stylesheet type="text/css" href="handson.css" ?>
<svg xmlns="http://www.w3.org/2000/svg" width="800" height="600" viewBox="0 0 800 600" xmlns:xlink="http://www.w3.org/1999/xlink" >

  <!-- draw background grid -->
  <path class="thin" style="stroke-opacity:0.2" d="M0,0
  h750v10h-750v10h750v10h-750v10
  h750v10h-750v10h750v10h-750v10
  h750v10h-750v10h750v10h-750v10
  h750v10h-750v10h750v10h-750v10
  h750v10h-750v10h750v10h-750v10
  h750v10h-750v10h750v10h-750v10
  h750v10h-750v10h750v10h-750v10
  h750v10h-750v10h750v10h-750v10
  h750v10h-750v10h750v10h-750v10
  h750v10h-750v10h750v10h-750v10
  h750v10h-750v10h750v10h-750v10
  h750v10h-750v10h750v10h-750v10
  h750v10h-750v10
  h750v-500h-750v500
  h10v-500h10v500h10v-500h10v500
  h10v-500h10v500h10v-500h10v500
  h10v-500h10v500h10v-500h10v500
  h10v-500h10v500h10v-500h10v500
  h10v-500h10v500h10v-500h10v500
  h10v-500h10v500h10v-500h10v500
  h10v-500h10v500h10v-500h10v500
  h10v-500h10v500h10v-500h10v500
  h10v-500h10v500h10v-500h10v500
  h10v-500h10v500h10v-500h10v500
  h10v-500h10v500h10v-500h10v500
  h10v-500h10v500h10v-500h10v500
  h10v-500h10v500h10v-500h10v500
  h10v-500h10v500h10v-500h10v500
  h10v-500h10v500h10v-500h10v500
  h10v-500h10v500h10v-500h10v500
  h10v-500h10v500h10v-500h10v500
  h10v-500h10v500h10v-500h10v500
  h10v-500h10v500" />
  <path class="outline" style="stroke-opacity:0.2" d="M0,0
  h750v50h-750v50h750v50h-750v50
  h750v50h-750v50h750v50h-750v50
  h750v50h-750v50
  h750v-500h-750v500
  h50v-500h50v500h50v-500h50v500
  h50v-500h50v500h50v-500h50v500
  h50v-500h50v500h50v-500h50v500
  h50v-500h50v500h50
  "/>
  <text x="0" style="text-anchor:middle;font-size:10px">
  <tspan x="50" y="10">50</tspan>
  <tspan x="100" y="10">100</tspan>
  <tspan x="150" y="10">150</tspan>
  <tspan x="200" y="10">200</tspan>
  <tspan x="250" y="10">250</tspan>
  <tspan x="300" y="10">300</tspan>
  <tspan x="350" y="10">350</tspan>
  <tspan x="400" y="10">400</tspan>
  <tspan x="450" y="10">450</tspan>
  <tspan x="500" y="10">500</tspan>
  <tspan x="550" y="10">550</tspan>
  <tspan x="600" y="10">600</tspan>
  <tspan x="650" y="10">650</tspan>
  <tspan x="700" y="10">700</tspan>
  </text>
  <text style="text-anchor:start;font-size:10px">
  <tspan x="730" y="53">50</tspan>
  <tspan x="730" y="103">100</tspan>
  <tspan x="730" y="153">150</tspan>
  <tspan x="730" y="203">200</tspan>
  <tspan x="730" y="253">250</tspan>
  <tspan x="730" y="303">300</tspan>
  <tspan x="730" y="353">350</tspan>
  <tspan x="730" y="403">400</tspan>
  <tspan x="730" y="453">450</tspan>

  </text>
  <!-- end draw grid -->


  <defs>
    <!--Mountain -->
    <g  id='mountain' transform="translate(0,0)">
      <g transform="translate(-500,0)">
        <polygon points="200,300 400,0 550,300" fill="grey" />
        <polygon points="366,50 400,0 425,50" fill="white" />
      </g>
      <g transform="translate(0,0)">
        <polygon points="-100,300 100,0 200,300" fill="grey" />
        <polygon points="66,50 100,0 118,50" fill="white" />
      </g>
      <g transform="translate(0,0)">
        <polygon points="100,300 200,70 350,300" fill="grey" />
        <polygon points="186,100 200,70 220,100" fill="white" />
      </g>
      <g transform="translate(0,0)">
        <polygon points="200,300 400,0 550,300" fill="grey" />
        <polygon points="366,50 400,0 425,50" fill="white" />
      </g>
      <g transform="translate(-50,0)">
        <polygon points="450,300 650,70 750,300" fill="grey" />
        <polygon points="623,100 650,70 664,100" fill="white" />
      </g>
    </g>
    <!--Tree -->
    <g  id='tree' transform="translate(100,100)">
        <!--leafs -->
        <g>
          <polygon points="0,120 50,100 100,120" fill="rgb(9,82,40)" />
          <polygon points="5,110 50,90 95,110" fill="rgb(9,82,40)" />
          <polygon points="10,100 50,80 90,100" fill="rgb(9,82,40)" />
          <polygon points="15,90 50,70 85,90" fill="rgb(9,82,40)" />
          <polygon points="20,80 50,65 80,80" fill="rgb(9,82,40)" />
          <polygon points="30,70 50,50 70,70" fill="rgb(9,82,40)" />
          <polygon points="30,70 50,50 70,70" fill="white" />
        </g>
        <!--trunk -->
        <g transform="translate(46,120)">
          <rect width='8' height='20' fill='brown' />
        </g>
    </g>

    <!--snow branch -->
      <g id='snow-branch'>

        <rect x="0" y="0" rx="5" ry="5" width="150" height="10"
            style="fill:white;opacity:0.5" />
        <g transform="translate(10,-20) scale(0.5)" >
            <polyline points="0,0 50,50 0,100"
              style="fill:none;stroke:white;stroke-width:8;opacity:0.5" />
        </g>
        <g transform="translate(138,30) scale(0.5) rotate(180)" >
            <polyline points="0,0 50,50 0,100"
              style="fill:none;stroke:white;stroke-width:8;opacity:0.5" />
        </g>
      </g>
    <!--snow-flake -->
    <g  id='snow' transform="translate(0,0)">
      <use xlink:href="#snow-branch" x="0" y="0" />
      <g transform="translate(0,0) rotate(120 75 5)" >
        <use xlink:href="#snow-branch" x="0" y="0" />
      </g>
      <g transform="translate(0,0) rotate(240 75 5)" >
        <use xlink:href="#snow-branch" x="0" y="0" />
      </g>
    </g>
    <!--snow groupe -->
    <g  id='snow-groupe' transform="translate(0,0)">
      <g transform="scale(0.1)">
        <use xlink:href="#snow" x="0" y="0" />
        <use xlink:href="#snow" x="1000" y="1000" />
        <use xlink:href="#snow" x="500" y="562" />
        <use xlink:href="#snow" x="2000" y="152" />
        <use xlink:href="#snow" x="1235" y="230" />
        <use xlink:href="#snow" x="2569" y="784" />
        <use xlink:href="#snow" x="2258" y="985" />
      </g>
    </g>

    <!--snow fall -->
    <g  id='snow-fall' transform="translate(0,0)">
      <g transform="translate(0,0)">
        <use xlink:href="#snow-groupe" x="0" y="0" />
        <use xlink:href="#snow-groupe" x="300" y="0" />
        <use xlink:href="#snow-groupe" x="600" y="0" />

        <use xlink:href="#snow-groupe" x="0" y="100" />
        <use xlink:href="#snow-groupe" x="300" y="100" />
        <use xlink:href="#snow-groupe" x="600" y="100" />

        <use xlink:href="#snow-groupe" x="0" y="200" />
        <use xlink:href="#snow-groupe" x="300" y="200" />
        <use xlink:href="#snow-groupe" x="600" y="200" />

        <use xlink:href="#snow-groupe" x="0" y="300" />
        <use xlink:href="#snow-groupe" x="300" y="300" />
        <use xlink:href="#snow-groupe" x="600" y="300" />

        <use xlink:href="#snow-groupe" x="0" y="400" />
        <use xlink:href="#snow-groupe" x="300" y="400" />
        <use xlink:href="#snow-groupe" x="600" y="400" />
      </g>
    </g>

    <!--snow-animation slow-->
    <g  id='snow-animation-slow' transform="translate(0,0)">

      <g transform="translate(0,0) rotate(180 400 0)">
        <use xlink:href="#snow-fall" x="0" y="-500" />
        <use xlink:href="#snow-fall" x="0" y="0" />
      </g>
      <animateTransform id="snowFallStart" attributeName="transform" type="translate"
                                from="0 0"
                                to="0 500"
                                dur="4s"
                                begin="0s"
                                repeatCount="indefinite"
                                />
    </g>

    <!--snow-animation fast-->
    <g  id='snow-animation-fast' transform="translate(0,0)">

      <g transform="translate(0,0)">
        <use xlink:href="#snow-fall" x="0" y="-500" />
        <use xlink:href="#snow-fall" x="0" y="0" />
      </g>
      <animateTransform id="snowFallStart" attributeName="transform" type="translate"
                                from="0 0"
                                to="0 500"
                                dur="8s"
                                begin="0s"
                                repeatCount="indefinite"
                                />
    </g>

    <!--sky-->
    <g id='sky'>
        <rect width='800' height='500' fill='rgb(135 206 235)' />
    </g>
    <!--cloud-->
    <g id="cloud" transform="scale(0.2)">
        <path  class="cloud" fill="white"
      d="M61.8,55.8
      c-33.4,4.2-57,34.7-52.7,68c3.9,31,30.5,53.5,61,53.2c0,0.3,0.1,0.6,0.1,0.8c3,23.3,24.2,39.7,47.5,36.8
      c13.5-1.7,24.8-9.6,31.2-20.5c11.1,17.6,31.8,28.2,53.9,25.4c23-2.9,40.9-19.5,46.6-40.6c4.2,0.5,8.5,0.5,12.8,0
      c28.5-3.6,48.6-29.6,45-58c-2.3-18.1-13.7-32.8-28.9-40.2c0-2.4-0.1-4.8-0.4-7.2c-3.5-27.6-28.7-47.1-56.3-43.6
      c-6.7,0.8-12.9,3-18.5,6.1c-12.6-21-36.7-33.7-62.5-30.4c-28.3,3.6-49.9,25.3-54.6,52.1"/>
    </g>
    <!-- moving cloud -->
    <g id="moving-cloud">
        <use xlink:href="#cloud" x="40" y="60" />
        <use xlink:href="#cloud" x="55" y="10" />
        <use xlink:href="#cloud" x="280" y="20" />
        <use xlink:href="#cloud" x="480" y="60" />
        <use xlink:href="#cloud" x="120" y="80" />
        <use xlink:href="#cloud" x="340" y="60" />
        <use xlink:href="#cloud" x="300" y="10" />
        <use xlink:href="#cloud" x="580" y="20" />
        <use xlink:href="#cloud" x="680" y="100" />
    </g>
    <!-- moving cloud slow -->
    <g id="moving-cloud-slow">
      <g transform="translate(0,0)">
        <use xlink:href="#moving-cloud" x="-800" y="0" />
        <use xlink:href="#moving-cloud" x="0" y="0" />
      </g>

      <animateTransform id="cloud-moving-slow" attributeName="transform" type="translate"
                                from="0 0"
                                to="800 0"
                                dur="60s"
                                begin="0s"
                                repeatCount="indefinite"
                                />
    </g>
    <!-- moving cloud slow -->
    <g id="moving-cloud-fast">
      <g transform="translate(0,-20) scale(0.5) rotate(180)">
        <use xlink:href="#moving-cloud" x="-1600" y="0" />
        <use xlink:href="#moving-cloud" x="-800" y="0" />
        <use xlink:href="#moving-cloud" x="0" y="0" />
        <use xlink:href="#moving-cloud" x="800" y="0" />
      </g>

      <g transform="translate(0,0) scale(0.5)">
        <use xlink:href="#moving-cloud" x="-1600" y="0" />
        <use xlink:href="#moving-cloud" x="-800" y="0" />
        <use xlink:href="#moving-cloud" x="0" y="0" />
        <use xlink:href="#moving-cloud" x="800" y="0" />
      </g>

      <animateTransform id="cloud-moving-slow" attributeName="transform" type="translate"
                                from="0 0"
                                to="800 0"
                                dur="120s"
                                begin="0s"
                                repeatCount="indefinite"
                                />
    </g>

    <g id="moving-cloud-fast">

    </g>
    <!-- ski-man -->
    <g id="ski-man" transform="scale(0.2)">
      <ellipse id="body" transform="translate(100,150)" cx="0" cy="0" rx="20" ry="50" fill="red"/>
      <circle id="head" transform="translate(100,100)" cx="0" cy="0" r="20" fill="antiquewhite"/>

      <line id="battons" transform="translate(40,190)" x1="0" y1="0" x2="60" y2="-30" stroke="red" stroke-width="4"/>

      <g id="hat">
        <rect id="bottom" transform="translate(79,90)" width="42" height="5" fill="white"/>
        <polygon id="middle" transform="translate(100,70)" points="-21,20 21,20, 0,0" fill="red"/>
        <circle id="top" transform="translate(100,70)" cx="0" cy="0" r="3" fill="white"/>
      </g>

      <g id="legs">
        <g id="leg">
          <line id="top" transform="translate(100,200)" x1="0" y1="0" x2="0" y2="30" stroke="red" stroke-width="4"/>
          <line id="bottom" transform="translate(100,230)" x1="0" y1="0" x2="0" y2="30" stroke="red" stroke-width="4"/>

        </g>
        <g id="ski">
          <line id="ski" transform="translate(40,260)" x1="0" y1="0" x2="120" y2="0" stroke="red" stroke-width="4"/>
          <line id="ski_tip" transform="translate(158,260)" x1="0" y1="0" x2="0" y2="-10" stroke="red" stroke-width="4"/>
        </g>
      </g>
    </g>

    <g id="line">
      <path id="jump-Line" d="M 0 100 q 100 0 400 -150 L 800 -50" stroke="blue"
        stroke-width="5" fill="none"/>
        <animateMotion
          xlink:href="#ski-man" rotate="0" fill="freeze"
          calcMode = "paced"
          begin = "0s" dur="10s">
          <mpath xlink:href="#jump-Line" />
        </animateMotion>
    </g>
    <!-- background-->
    <g id="background">
      <use xlink:href="#sky" x="0" y="0" />
      <g transform="translate(0,300)">
        <rect width='800' height='205' fill='white' />
      </g>
      <use xlink:href="#mountain" x="100" y="50" />
      <g transform="translate(200,0)">
        <use xlink:href="#tree" x="0" y="100" />
        <use xlink:href="#tree" x="50" y="95" />
        <use xlink:href="#tree" x="180" y="100" />
        <use xlink:href="#tree" x="290" y="85" />
      </g>
    </g>
    <!-- background zoom -->
    <g id="background-zoom">
      <use xlink:href="#background" x="0" y="0" />
      <animateTransform id="backgroundZoom" attributeName="transform" type="scale"
                                from="1"
                                to="2"
                                dur="2s"
                                begin="0s"
                                />
    </g>

  </defs>


<use xlink:href="#background-zoom" x="0" y="0" />

<use xlink:href="#snow-animation-fast" x="0" y="0" />
<use xlink:href="#snow-animation-slow" x="40" y="0" />

<use xlink:href="#moving-cloud-slow" x="0" y="0" />
<use xlink:href="#moving-cloud-fast" x="100" y="100" />

<use xlink:href="#ski-man" x="0" y="100" />





</svg>
