<?xml version="1.0" standalone="no"?>
<?xml-stylesheet type="text/css" href="handson.css" ?> 
<svg xmlns="http://www.w3.org/2000/svg" width="750" height="500" viewBox="0 0 750 500" xmlns:xlink="http://www.w3.org/1999/xlink" >

<defs>
    <!--BackGround -->
    <linearGradient id="DegradeSoleil" x1="0%" y1="0%" x2="100%" y2="0%"> 
        <stop offset="0%" style="stop-color:(255,255,0);stop-opacity:1"/>
        <stop offset="100%" style="stop-color:(255,0,0);stop-opacity:1"/>
    </linearGradient>

    <circle id="Soleil"   cx="0" cy="0" r="30" fill="yellow"  />
    <rect id="rayons" width="40" height="3" fill="yellow" transform="translate(50,50)"/>
    <polygon id="montagne1" transform="translate(0,0)" points="100,100 150,300 60,300" fill="grey" />
    <polygon id="montagne2" transform="translate(0,0)" points="130,100 150,300 60,300" fill="grey" />
    <rect id="sol" width="750" height="300" fill="green" />
</defs>


<!--Drawing the BackGround -->
<use href="#montagne1" />
<use href="#montagne1" transform="translate(40,0)"/>
<use href="#montagne1" transform="translate(100,0)"/>
<use href="#montagne2"  transform="translate(160,0)"/>
<use href="#montagne2"  transform="translate(210,0)"/>
<g>
    <use href="#Soleil" transform="translate(50,50)"/>
    <use href="#rayons"/>
    <use href="#rayons" transform="rotate(30 50 50)"/> 
    <use href="#rayons" transform="rotate(60 50 50)"/> 
    <use href="#rayons" transform="rotate(90 50 50)"/> 
    <use href="#rayons" transform="rotate(120 50 50)"/>
    <use href="#rayons" transform="rotate(150 50 50)"/>
    <use href="#rayons" transform="rotate(180 50 50)"/>
    <use href="#rayons" transform="rotate(210 50 50)"/>   
    <use href="#rayons" transform="rotate(240 50 50)"/> 
    <use href="#rayons" transform="rotate(270 50 50)"/> 
    <use href="#rayons" transform="rotate(300 50 50)"/>  
    <use href="#rayons" transform="rotate(330 50 50)"/>  
    <animateTransform id="rotationRayons" attributeName="transform" attributeType="XML" type="rotate" from="0 50 50" to="360 50 50" dur="10s" repeatCount="indefinite" />   
</g>


<use href="#sol" transform="translate(0,300)"/>

<defs>
    <!--Implementing the charasteristiques of the House -->
    <rect id= "wallsLeft/Right" width="5" height="60" fill="brown" />
    <rect id= "wallsTop/Bottom" width="90" height="5" fill="brown" />
    <polygon id="roof" points="300,400 345,350 390,400" fill="brown" />
    <rect id="door" width="100" height="100" />
</defs>

<!-- Drawing the house-->
<use href="#wallsLeft/Right" transform="translate(300,400)"/>
<use href="#wallsLeft/Right" transform="translate(385,400)"/>
<use href="#wallsTop/Bottom" transform="translate(300,400)"/>
<use href="#wallsTop/Bottom" transform="translate(300,460)"/>
<use href="#roof"/>


<!-- Drawing the path for the competitor going from the left side
of the window to the house-->
<path  fill="transparent" stroke="#000000" stroke-width="0.1"  
    d="M 10 80 C 40 10, 65 10, 95 80 S 150 150, 180 80"  />


</svg>